# xmcd CD database file
#
# Track frame offsets:
#	187
#	18954
#	38127
#
# Disc length: 760 seconds
#
# Revision: 0
# Processed by: cddbd v1.5.1PL0 Copyright (c) Steve Scherf et al.
# Submitted via: CDex 1.51
#
DISCID=1802f603
DTITLE=本間かおり - 魔物ハンター妖子2主題歌
DYEAR=1992
DGENRE=JPop
TTITLE0=ところがどっこい！セクシー娘
TTITLE1=壊れかけた鏡
TTITLE2=ところがどっこい！セクシー娘 karaoke
EXTD=YEAR: 1992
EXTT0=
EXTT1=
EXTT2=
PLAYORDER=
